<?xml version="1.0" encoding="UTF-8" standalone="no"?>
<svg
   xmlns:dc="http://purl.org/dc/elements/1.1/"
   xmlns:cc="http://creativecommons.org/ns#"
   xmlns:rdf="http://www.w3.org/1999/02/22-rdf-syntax-ns#"
   xmlns:svg="http://www.w3.org/2000/svg"
   xmlns="http://www.w3.org/2000/svg"
   xmlns:sodipodi="http://sodipodi.sourceforge.net/DTD/sodipodi-0.dtd"
   xmlns:inkscape="http://www.inkscape.org/namespaces/inkscape"
   version="1.1"
   id="svg9005"
   viewBox="0 0 999.99998 540.77221"
   height="540.77222"
   width="1000"
   sodipodi:docname="Indosat_Ooredoo.svg"
   inkscape:version="1.0.2 (e86c870879, 2021-01-15)">
  <sodipodi:namedview
     pagecolor="#ffffff"
     bordercolor="#666666"
     borderopacity="1"
     objecttolerance="10"
     gridtolerance="10"
     guidetolerance="10"
     inkscape:pageopacity="0"
     inkscape:pageshadow="2"
     inkscape:window-width="1366"
     inkscape:window-height="705"
     id="namedview29"
     showgrid="false"
     inkscape:zoom="0.5"
     inkscape:cx="493.54074"
     inkscape:cy="364.10177"
     inkscape:window-x="-8"
     inkscape:window-y="-8"
     inkscape:window-maximized="1"
     inkscape:current-layer="svg9005"
     inkscape:document-rotation="0" />
  <defs
     id="defs9007" />
  <metadata
     id="metadata9010">
    <rdf:RDF>
      <cc:Work
         rdf:about="">
        <dc:format>image/svg+xml</dc:format>
        <dc:type
           rdf:resource="http://purl.org/dc/dcmitype/StillImage" />
        <dc:title />
      </cc:Work>
    </rdf:RDF>
  </metadata>
  <g
     id="g1167">
    <path
       id="rect1077"
       style="display:inline;opacity:1;fill:#fdc500;fill-opacity:1;fill-rule:evenodd;stroke-width:179.949;paint-order:stroke fill markers"
       d="m 218.27801,0 c -38.95614,0 -70.31794,31.361803 -70.31794,70.317944 v 81.813966 c 0,-40.98449 -32.99555,-73.980027 -73.980037,-73.980027 -40.984495,0 -73.97807988,32.995537 -73.97807988,73.980027 v 243.73684 c 0,40.9845 32.99358488,73.97809 73.97807988,73.97809 40.984487,0 73.980037,-32.99359 73.980037,-73.97809 v 27.65023 c 0,38.95615 31.3618,70.31795 70.31794,70.31795 38.95614,0 70.31795,-31.3618 70.31795,-70.31795 v 46.93527 c 0,38.95614 31.36179,70.31795 70.31794,70.31795 38.95614,0 70.31795,-31.36181 70.31795,-70.31795 v -46.70284 c 0,38.9556 31.36038,70.31794 70.31598,70.31794 38.9556,0 70.31795,-31.36234 70.31795,-70.31794 v -29.03499 c 0,38.95614 31.3618,70.31795 70.31794,70.31795 38.95614,0 70.31795,-31.36181 70.31795,-70.31795 v 30.07404 c 0,38.95614 31.3618,70.31795 70.31794,70.31795 38.95614,0 70.31795,-31.36181 70.31795,-70.31795 v -31.27325 c 0,41.2348 33.19639,74.4312 74.4312,74.4312 41.23481,0 74.43124,-33.1964 74.43124,-74.4312 V 97.184974 c 0,-41.23481 -33.19643,-74.429249 -74.43124,-74.429249 -41.23481,0 -74.4312,33.194439 -74.4312,74.429249 v 48.155966 c 0,-38.95614 -31.36181,-70.317945 -70.31795,-70.317945 -38.95614,0 -70.31794,31.361805 -70.31794,70.317945 v -26.94711 c 0,-38.956139 -31.36181,-70.317942 -70.31795,-70.317942 -38.95614,0 -70.31794,31.361803 -70.31794,70.317942 v 29.03108 c 0,-38.9556 -31.36235,-70.31599 -70.31795,-70.31599 -38.9556,0 -70.31598,31.36039 -70.31598,70.31599 v -31.51543 c 0,-38.956149 -31.36181,-70.317952 -70.31795,-70.317952 -38.95615,0 -70.31794,31.361803 -70.31794,70.317952 V 70.317944 C 288.59596,31.361803 257.23415,0 218.27801,0 Z" />
    <g
       id="g929"
       transform="matrix(0.9999941,0,0,0.9999941,0.1859989,2.4975239)">
      <path
         style="fill:#000000;fill-opacity:1;fill-rule:nonzero;stroke:none;stroke-width:10.7867"
         d="m 660.77824,174.3693 c -7.22707,-6.67695 -16.66541,-9.03924 -22.63044,-9.06081 -7.89584,-0.0432 -12.31838,8.86665 -4.15287,12.68513 2.57802,1.17575 5.85717,2.03868 9.1471,3.00948 15.02584,4.43332 30.48314,9.01766 28.88671,29.21031 -0.46383,5.59828 -2.5888,10.18262 -5.94346,13.753 -3.20364,3.34387 -7.33493,5.64143 -12.04871,6.92505 -4.21759,1.16496 -8.93136,1.49934 -13.79615,1.12181 -11.66039,-0.9708 -24.19451,-5.72772 -33.65442,-14.8101 l 10.24734,-13.61278 c 6.59066,6.32099 16.57911,10.62487 24.75541,11.28286 2.98791,0.23731 5.7493,0.0539 8.04686,-0.58248 1.79059,-0.47461 3.21443,-1.19732 4.12051,-2.16812 0.70113,-0.75507 1.18653,-1.83374 1.2944,-3.25758 0.51776,-6.33177 -8.19787,-8.92057 -16.62226,-11.40151 -13.74222,-4.06657 -27.13927,-8.0145 -27.0314,-24.6044 0.0216,-5.39333 1.51013,-10.13947 4.2068,-14.04425 2.44857,-3.52724 5.79244,-6.28862 9.83744,-8.11157 3.73219,-1.66115 8.05765,-2.55644 12.793,-2.53487 9.14709,0.0324 20.11714,3.5596 31.34607,11.47702 z"
         id="path938" />
      <path
         style="fill:#000000;fill-opacity:1;fill-rule:nonzero;stroke:none;stroke-width:10.7867"
         d="m 901.489,152.88225 h 10.27969 v -33.7515 h 18.66095 v 33.7515 h 11.42308 v 17.5607 h -11.42308 v 31.37843 c -0.18338,7.69089 3.44095,11.22892 12.09186,12.35074 v 17.99216 c -18.97376,-0.28045 -31.47551,-4.55197 -30.75281,-30.3429 V 170.44295 H 901.489 Z"
         id="path936" />
      <path
         style="fill:#000000;fill-opacity:1;fill-rule:nonzero;stroke:none;stroke-width:10.7867"
         d="m 68.837,149.93748 h 19.54545 v 82.56119 H 68.837 Z"
         id="path934" />
      <path
         id="path930"
         style="fill:#000000;fill-opacity:1;fill-rule:nonzero;stroke:none;stroke-width:10.7867"
         d="m 795.87681,174.60662 c -3.92634,-3.99107 -9.36283,-6.45043 -15.36022,-6.45043 -6.00817,0 -11.44466,2.45936 -15.36022,6.45043 -3.93713,3.95871 -6.36413,9.44913 -6.36413,15.50045 0,6.08368 2.427,11.56331 6.36413,15.53281 3.91556,3.98028 9.35205,6.41807 15.36022,6.41807 5.99739,0 11.43388,-2.43779 15.36022,-6.41807 3.93714,-3.9695 6.37493,-9.44913 6.37493,-15.53281 0,-6.05132 -2.43779,-11.54174 -6.37493,-15.50045 m -15.36022,-25.37027 c 11.18578,0 21.29289,4.59512 28.62783,11.96242 7.31336,7.42123 11.84377,17.62542 11.84377,28.90828 v 41.59341 H 804.10704 V 223.33 c -6.65537,4.82164 -14.78852,7.66932 -23.59045,7.66932 -11.1642,0 -21.30367,-4.59512 -28.61704,-11.98399 -7.32415,-7.39966 -11.85455,-17.61463 -11.85455,-28.90828 0,-11.28286 4.5304,-21.48705 11.85455,-28.90828 7.31337,-7.3673 17.45284,-11.96242 28.61704,-11.96242" />
      <path
         style="fill:#000000;fill-opacity:1;fill-rule:nonzero;stroke:none;stroke-width:10.7867"
         d="m 219.53703,149.85121 c 11.39073,0 21.68121,4.64906 29.1348,12.19973 7.1192,7.16235 11.62803,16.93507 12.04871,27.76489 h 0.23731 v 42.69365 h -19.3405 v -42.69365 c -0.39911,-5.5012 -2.78296,-10.47386 -6.42886,-14.15211 -4.00185,-4.03422 -9.5462,-6.54751 -15.65146,-6.54751 -6.11604,0 -11.64961,2.51329 -15.65146,6.54751 -3.66747,3.67825 -6.02975,8.65091 -6.42886,14.15211 v 42.69365 h -19.23263 v -42.69365 h 0.11865 c 0.43147,-10.82982 4.92951,-20.60254 12.03793,-27.76489 7.47516,-7.55067 17.75486,-12.19973 29.15637,-12.19973"
         id="path928" />
      <path
         id="path924"
         style="fill:#000000;fill-opacity:1;fill-rule:nonzero;stroke:none;stroke-width:10.7867"
         d="m 515.04375,175.71765 c -3.93714,-3.95871 -9.35205,-6.42886 -15.36022,-6.42886 -6.00818,0 -11.44466,2.47015 -15.3818,6.42886 -3.91556,3.99107 -6.36413,9.48148 -6.36413,15.53281 0,6.06211 2.44857,11.56331 6.36413,15.53281 3.93714,3.96949 9.37362,6.42885 15.3818,6.42885 6.00817,0 11.42308,-2.45936 15.36022,-6.42885 3.93713,-3.9695 6.36414,-9.4707 6.36414,-15.53281 0,-6.05133 -2.42701,-11.54174 -6.36414,-15.53281 m -15.36022,-25.33789 c 11.1642,0 21.2821,4.56276 28.60625,11.9732 7.31337,7.37809 11.86534,17.62543 11.86534,28.8975 0,11.28286 -4.55197,21.51941 -11.86534,28.89749 -7.32415,7.42123 -17.44205,11.99478 -28.60625,11.99478 -11.18578,0 -21.30368,-4.57355 -28.62783,-11.99478 -7.31336,-7.37808 -11.84377,-17.61463 -11.84377,-28.89749 0,-11.27207 4.53041,-21.51941 11.84377,-28.8975 7.32415,-7.41044 17.44205,-11.9732 28.62783,-11.9732" />
      <path
         id="path12099"
         style="fill:#000000;fill-opacity:1;fill-rule:nonzero;stroke:none;stroke-width:10.7867"
         d="m 375.1514,175.78235 c -3.91556,-3.9695 -9.37362,-6.42886 -15.38179,-6.42886 -5.97582,0 -11.4123,2.45936 -15.33865,6.42886 -3.95871,3.9695 -6.37493,9.44912 -6.37493,15.50045 0,6.08368 2.41622,11.5741 6.37493,15.53281 3.92635,3.98028 9.36283,6.42885 15.33865,6.42885 6.00817,0 11.46623,-2.44857 15.38179,-6.42885 3.93714,-3.95871 6.36414,-9.44913 6.36414,-15.53281 0,-6.05133 -2.427,-11.53095 -6.36414,-15.50045 m -15.38179,-25.35947 c 8.21944,0 15.84562,2.45937 22.23133,6.70931 V 113.91 h 18.26183 v 77.3728 c 0,11.30443 -4.5304,21.51941 -11.85455,28.92985 -7.31336,7.37809 -17.45284,11.97321 -28.63861,11.97321 -11.16421,0 -21.27132,-4.59512 -28.60626,-11.97321 -7.33494,-7.41044 -11.84376,-17.62542 -11.84376,-28.92985 0,-11.26129 4.50882,-21.48705 11.84376,-28.88671 7.33494,-7.38887 17.44205,-11.97321 28.60626,-11.97321" />
    </g>
    <g
       id="g984"
       transform="matrix(0.9999941,0,0,0.9999941,0.1859989,2.4975239)">
      <path
         style="color:#000000;font-style:normal;font-variant:normal;font-weight:normal;font-stretch:normal;font-size:medium;line-height:normal;font-family:sans-serif;font-variant-ligatures:normal;font-variant-position:normal;font-variant-caps:normal;font-variant-numeric:normal;font-variant-alternates:normal;font-variant-east-asian:normal;font-feature-settings:normal;font-variation-settings:normal;text-indent:0;text-align:start;text-decoration:none;text-decoration-line:none;text-decoration-style:solid;text-decoration-color:#000000;letter-spacing:normal;word-spacing:normal;text-transform:none;writing-mode:lr-tb;direction:ltr;text-orientation:mixed;dominant-baseline:auto;baseline-shift:baseline;text-anchor:start;white-space:normal;shape-padding:0;shape-margin:0;inline-size:0;clip-rule:nonzero;display:inline;overflow:visible;visibility:visible;opacity:1;isolation:auto;mix-blend-mode:normal;color-interpolation:sRGB;color-interpolation-filters:linearRGB;solid-color:#000000;solid-opacity:1;vector-effect:none;fill:#e40b14;fill-opacity:1;fill-rule:evenodd;stroke:none;stroke-width:0.994994;stroke-linecap:butt;stroke-linejoin:miter;stroke-miterlimit:4;stroke-dasharray:none;stroke-dashoffset:0;stroke-opacity:1;paint-order:stroke fill markers;color-rendering:auto;image-rendering:auto;shape-rendering:auto;text-rendering:auto;enable-background:accumulate;stop-color:#000000"
         d="M 77.907144,256.513 C 34.995492,256.51299 -0.186,291.69034 -0.186,334.6042 c 0,42.91386 35.179277,78.09315 78.093144,78.09315 42.913876,0 78.091206,-35.18151 78.091206,-78.09315 0,-42.91164 -35.17955,-78.09121 -78.091206,-78.0912 z"
         id="path877" />
      <path
         style="color:#000000;font-style:normal;font-variant:normal;font-weight:normal;font-stretch:normal;font-size:medium;line-height:normal;font-family:sans-serif;font-variant-ligatures:normal;font-variant-position:normal;font-variant-caps:normal;font-variant-numeric:normal;font-variant-alternates:normal;font-variant-east-asian:normal;font-feature-settings:normal;font-variation-settings:normal;text-indent:0;text-align:start;text-decoration:none;text-decoration-line:none;text-decoration-style:solid;text-decoration-color:#000000;letter-spacing:normal;word-spacing:normal;text-transform:none;writing-mode:lr-tb;direction:ltr;text-orientation:mixed;dominant-baseline:auto;baseline-shift:baseline;text-anchor:start;white-space:normal;shape-padding:0;shape-margin:0;inline-size:0;clip-rule:nonzero;display:inline;overflow:visible;visibility:visible;opacity:1;isolation:auto;mix-blend-mode:normal;color-interpolation:sRGB;color-interpolation-filters:linearRGB;solid-color:#000000;solid-opacity:1;vector-effect:none;fill:#e40b14;fill-opacity:1;fill-rule:evenodd;stroke:none;stroke-width:0.994994;stroke-linecap:butt;stroke-linejoin:miter;stroke-miterlimit:4;stroke-dasharray:none;stroke-dashoffset:0;stroke-opacity:1;paint-order:stroke fill markers;color-rendering:auto;image-rendering:auto;shape-rendering:auto;text-rendering:auto;enable-background:accumulate;stop-color:#000000"
         d="m 217.64256,256.513 c -42.91166,-10e-6 -78.09315,35.17734 -78.09315,78.0912 0,42.91386 35.17928,78.09315 78.09315,78.09315 42.91387,0 78.0912,-35.18151 78.0912,-78.09315 0,-42.91164 -35.17955,-78.09121 -78.0912,-78.0912 z"
         id="path877-2" />
      <path
         style="color:#000000;font-style:normal;font-variant:normal;font-weight:normal;font-stretch:normal;font-size:medium;line-height:normal;font-family:sans-serif;font-variant-ligatures:normal;font-variant-position:normal;font-variant-caps:normal;font-variant-numeric:normal;font-variant-alternates:normal;font-variant-east-asian:normal;font-feature-settings:normal;font-variation-settings:normal;text-indent:0;text-align:start;text-decoration:none;text-decoration-line:none;text-decoration-style:solid;text-decoration-color:#000000;letter-spacing:normal;word-spacing:normal;text-transform:none;writing-mode:lr-tb;direction:ltr;text-orientation:mixed;dominant-baseline:auto;baseline-shift:baseline;text-anchor:start;white-space:normal;shape-padding:0;shape-margin:0;inline-size:0;clip-rule:nonzero;display:inline;overflow:visible;visibility:visible;opacity:1;isolation:auto;mix-blend-mode:normal;color-interpolation:sRGB;color-interpolation-filters:linearRGB;solid-color:#000000;solid-opacity:1;vector-effect:none;fill:#e40b14;fill-opacity:1;fill-rule:evenodd;stroke:none;stroke-width:0.994994;stroke-linecap:butt;stroke-linejoin:miter;stroke-miterlimit:4;stroke-dasharray:none;stroke-dashoffset:0;stroke-opacity:1;paint-order:stroke fill markers;color-rendering:auto;image-rendering:auto;shape-rendering:auto;text-rendering:auto;enable-background:accumulate;stop-color:#000000"
         d="m 359.17971,256.513 c -42.91166,-10e-6 -78.09315,35.17734 -78.09315,78.0912 0,42.91386 35.17928,78.09315 78.09315,78.09315 42.91385,0 78.0912,-35.18151 78.0912,-78.09315 0,-42.91164 -35.17955,-78.09121 -78.0912,-78.0912 z"
         id="path877-6-4" />
      <path
         style="color:#000000;font-style:normal;font-variant:normal;font-weight:normal;font-stretch:normal;font-size:medium;line-height:normal;font-family:sans-serif;font-variant-ligatures:normal;font-variant-position:normal;font-variant-caps:normal;font-variant-numeric:normal;font-variant-alternates:normal;font-variant-east-asian:normal;font-feature-settings:normal;font-variation-settings:normal;text-indent:0;text-align:start;text-decoration:none;text-decoration-line:none;text-decoration-style:solid;text-decoration-color:#000000;letter-spacing:normal;word-spacing:normal;text-transform:none;writing-mode:lr-tb;direction:ltr;text-orientation:mixed;dominant-baseline:auto;baseline-shift:baseline;text-anchor:start;white-space:normal;shape-padding:0;shape-margin:0;inline-size:0;clip-rule:nonzero;display:inline;overflow:visible;visibility:visible;opacity:1;isolation:auto;mix-blend-mode:normal;color-interpolation:sRGB;color-interpolation-filters:linearRGB;solid-color:#000000;solid-opacity:1;vector-effect:none;fill:#e40b14;fill-opacity:1;fill-rule:evenodd;stroke:none;stroke-width:0.994994;stroke-linecap:butt;stroke-linejoin:miter;stroke-miterlimit:4;stroke-dasharray:none;stroke-dashoffset:0;stroke-opacity:1;paint-order:stroke fill markers;color-rendering:auto;image-rendering:auto;shape-rendering:auto;text-rendering:auto;enable-background:accumulate;stop-color:#000000"
         d="m 498.91508,256.513 c -42.91161,-10e-6 -78.09312,35.17734 -78.09312,78.0912 0,42.91386 35.17927,78.09315 78.09312,78.09315 42.91388,0 78.09123,-35.18151 78.09123,-78.09315 0,-42.91164 -35.17955,-78.09121 -78.09123,-78.0912 z"
         id="path877-6-4-7" />
      <path
         style="color:#000000;font-style:normal;font-variant:normal;font-weight:normal;font-stretch:normal;font-size:medium;line-height:normal;font-family:sans-serif;font-variant-ligatures:normal;font-variant-position:normal;font-variant-caps:normal;font-variant-numeric:normal;font-variant-alternates:normal;font-variant-east-asian:normal;font-feature-settings:normal;font-variation-settings:normal;text-indent:0;text-align:start;text-decoration:none;text-decoration-line:none;text-decoration-style:solid;text-decoration-color:#000000;letter-spacing:normal;word-spacing:normal;text-transform:none;writing-mode:lr-tb;direction:ltr;text-orientation:mixed;dominant-baseline:auto;baseline-shift:baseline;text-anchor:start;white-space:normal;shape-padding:0;shape-margin:0;inline-size:0;clip-rule:nonzero;display:inline;overflow:visible;visibility:visible;opacity:1;isolation:auto;mix-blend-mode:normal;color-interpolation:sRGB;color-interpolation-filters:linearRGB;solid-color:#000000;solid-opacity:1;vector-effect:none;fill:#e40b14;fill-opacity:1;fill-rule:evenodd;stroke:none;stroke-width:0.994994;stroke-linecap:butt;stroke-linejoin:miter;stroke-miterlimit:4;stroke-dasharray:none;stroke-dashoffset:0;stroke-opacity:1;paint-order:stroke fill markers;color-rendering:auto;image-rendering:auto;shape-rendering:auto;text-rendering:auto;enable-background:accumulate;stop-color:#000000"
         d="m 640.45228,256.513 c -42.91168,-10e-6 -78.09315,35.17734 -78.09315,78.0912 0,42.91386 35.17927,78.09315 78.09315,78.09315 42.91385,0 78.0912,-35.18151 78.0912,-78.09315 0,-42.91164 -35.17955,-78.09121 -78.0912,-78.0912 z"
         id="path877-6-4-1" />
      <path
         style="color:#000000;font-style:normal;font-variant:normal;font-weight:normal;font-stretch:normal;font-size:medium;line-height:normal;font-family:sans-serif;font-variant-ligatures:normal;font-variant-position:normal;font-variant-caps:normal;font-variant-numeric:normal;font-variant-alternates:normal;font-variant-east-asian:normal;font-feature-settings:normal;font-variation-settings:normal;text-indent:0;text-align:start;text-decoration:none;text-decoration-line:none;text-decoration-style:solid;text-decoration-color:#000000;letter-spacing:normal;word-spacing:normal;text-transform:none;writing-mode:lr-tb;direction:ltr;text-orientation:mixed;dominant-baseline:auto;baseline-shift:baseline;text-anchor:start;white-space:normal;shape-padding:0;shape-margin:0;inline-size:0;clip-rule:nonzero;display:inline;overflow:visible;visibility:visible;opacity:1;isolation:auto;mix-blend-mode:normal;color-interpolation:sRGB;color-interpolation-filters:linearRGB;solid-color:#000000;solid-opacity:1;vector-effect:none;fill:#e40b14;fill-opacity:1;fill-rule:evenodd;stroke:none;stroke-width:0.994994;stroke-linecap:butt;stroke-linejoin:miter;stroke-miterlimit:4;stroke-dasharray:none;stroke-dashoffset:0;stroke-opacity:1;paint-order:stroke fill markers;color-rendering:auto;image-rendering:auto;shape-rendering:auto;text-rendering:auto;enable-background:accumulate;stop-color:#000000"
         d="m 780.18768,256.513 c -42.91169,-10e-6 -78.09316,35.17734 -78.09316,78.0912 0,42.91386 35.17923,78.09315 78.09316,78.09315 42.91385,0 78.0912,-35.18151 78.0912,-78.09315 0,-42.91164 -35.17955,-78.09121 -78.0912,-78.0912 z"
         id="path877-6-4-4" />
      <path
         style="color:#000000;font-style:normal;font-variant:normal;font-weight:normal;font-stretch:normal;font-size:medium;line-height:normal;font-family:sans-serif;font-variant-ligatures:normal;font-variant-position:normal;font-variant-caps:normal;font-variant-numeric:normal;font-variant-alternates:normal;font-variant-east-asian:normal;font-feature-settings:normal;font-variation-settings:normal;text-indent:0;text-align:start;text-decoration:none;text-decoration-line:none;text-decoration-style:solid;text-decoration-color:#000000;letter-spacing:normal;word-spacing:normal;text-transform:none;writing-mode:lr-tb;direction:ltr;text-orientation:mixed;dominant-baseline:auto;baseline-shift:baseline;text-anchor:start;white-space:normal;shape-padding:0;shape-margin:0;inline-size:0;clip-rule:nonzero;display:inline;overflow:visible;visibility:visible;opacity:1;isolation:auto;mix-blend-mode:normal;color-interpolation:sRGB;color-interpolation-filters:linearRGB;solid-color:#000000;solid-opacity:1;vector-effect:none;fill:#e40b14;fill-opacity:1;fill-rule:evenodd;stroke:none;stroke-width:0.994994;stroke-linecap:butt;stroke-linejoin:miter;stroke-miterlimit:4;stroke-dasharray:none;stroke-dashoffset:0;stroke-opacity:1;paint-order:stroke fill markers;color-rendering:auto;image-rendering:auto;shape-rendering:auto;text-rendering:auto;enable-background:accumulate;stop-color:#000000"
         d="m 921.72484,256.513 c -42.91168,-10e-6 -78.09315,35.17734 -78.09315,78.0912 0,42.91386 35.17927,78.09315 78.09315,78.09315 42.91385,0 78.09116,-35.18151 78.09116,-78.09315 0,-42.91164 -35.17951,-78.09121 -78.09116,-78.0912 z"
         id="path877-6-4-2" />
      <path
         id="path1009"
         style="display:inline;opacity:1;fill:#ffffff;stroke-width:1.83833"
         d="m 77.562983,294.65826 c -22.207012,0 -40.204246,18.034 -40.204246,40.29616 0,22.24378 17.997234,40.27778 40.204246,40.27778 22.225393,0 40.222637,-18.03584 40.222637,-40.27778 0,-22.26216 -17.997244,-40.29616 -40.222637,-40.29616 z m -0.36768,63.73485 c -12.941834,0 -23.438691,-10.60715 -23.438691,-23.67767 0,-13.07052 10.496857,-23.65929 23.438691,-23.65929 12.941834,0 23.438687,10.58877 23.438687,23.65929 0,13.07052 -10.496853,23.67767 -23.438687,23.67767 z" />
      <path
         id="path1005"
         style="display:inline;opacity:1;fill:#ffffff;stroke-width:1.83833"
         d="m 218.36057,294.30898 c -22.207,0 -40.22262,18.05238 -40.22262,40.29616 0,22.24378 18.01562,40.29616 40.22262,40.29616 22.20702,0 40.20426,-18.05238 40.20426,-40.29616 0,-22.24378 -17.99724,-40.29616 -40.20426,-40.29616 z m -0.38604,63.73485 c -12.94184,0 -23.43869,-10.59061 -23.43869,-23.65929 0,-13.0889 10.49685,-23.67767 23.43869,-23.67767 12.94184,0 23.43869,10.58877 23.43869,23.67767 0,13.07052 -10.49685,23.65929 -23.43869,23.65929 z" />
      <path
         id="path1001"
         style="display:inline;opacity:1;fill:#ffffff;stroke-width:1.83833"
         d="m 781.2384,294.30898 c -22.207,0 -40.22444,18.05238 -40.22444,40.29616 0,22.24378 18.01744,40.29616 40.22444,40.29616 22.20705,0 40.20244,-18.05238 40.20244,-40.29616 0.002,-22.24378 -17.99539,-40.29616 -40.20244,-40.29616 z m -0.386,63.73485 c -12.94182,0 -23.43868,-10.59061 -23.43868,-23.65929 0,-13.07051 10.49686,-23.67767 23.43868,-23.67767 12.94187,0 23.43873,10.60716 23.43873,23.67767 0,13.07052 -10.49686,23.65929 -23.43873,23.65929 z" />
      <path
         id="path997"
         style="display:inline;opacity:1;fill:#ffffff;stroke-width:1.83833"
         d="m 921.28232,294.30898 c -22.20704,0 -40.20428,18.05238 -40.20428,40.29616 0,22.24378 17.99724,40.29616 40.20428,40.29616 22.22537,0 40.2226,-18.05238 40.2226,-40.29616 0,-22.24378 -17.99723,-40.29616 -40.2226,-40.29616 z m 0.02,63.73485 c -12.96022,0 -23.45708,-10.59061 -23.45708,-23.65929 0,-13.07051 10.49686,-23.67767 23.45708,-23.67767 12.94183,0 23.42033,10.60716 23.42033,23.67767 0,13.07052 -10.4785,23.65929 -23.42033,23.65929 z" />
      <path
         id="path995"
         style="display:inline;opacity:1;fill:#ffffff;stroke-width:1.83833"
         d="m 663.47429,260.00857 v 41.61064 c -6.5273,-4.58893 -14.47095,-7.29222 -23.04969,-7.29222 -22.207,0 -40.22452,18.05308 -40.22452,40.29686 0,22.24377 18.01752,40.29686 40.22452,40.29686 22.20705,0 40.20304,-18.05309 40.20304,-40.29686 v -66.88122 c -5.34089,-3.2323 -11.0913,-5.8464 -17.15335,-7.73406 z m -23.43677,50.71712 c 12.94187,0 23.43873,10.60673 23.43873,23.67724 0,13.07052 -10.49686,23.65965 -23.43873,23.65965 -12.94183,0 -23.43873,-10.59097 -23.43873,-23.65965 0,-13.07051 10.4969,-23.67724 23.43873,-23.67724 z" />
      <path
         id="path989"
         style="display:inline;opacity:1;fill:#ffffff;stroke-width:1.83833"
         d="m 539.82912,334.60514 c 0,-22.24562 -17.99724,-40.29616 -40.20428,-40.29616 -22.207,0 -40.2226,18.05238 -40.2226,40.29616 0,22.24378 18.0156,40.29616 40.2226,40.29616 18.98996,0 34.89151,-13.20104 39.10308,-30.92068 H 520.6572 c -3.63989,8.29086 -11.85722,14.06321 -21.41656,14.06321 -9.5593,0 -17.77664,-5.77419 -21.41652,-14.06321 -1.19493,-2.68396 -1.89349,-5.62713 -2.00377,-8.73206 h 63.99405 c 0.016,-0.2206 0.016,-0.42282 0.016,-0.64342 z m -61.03252,-13.7507 c 3.67665,-5.36792 10.47846,-9.11811 17.46411,-9.96374 h 0.036 c 0.97428,-0.12868 1.94861,-0.1838 2.94133,-0.1838 0.99268,0 1.96696,0.0551 2.94128,0.1838 h 0.0552 c 7.02242,0.84563 13.98967,4.59582 17.68472,9.96374 z" />
      <path
         style="display:inline;opacity:1;fill:#ffffff;stroke-width:1.83833"
         d="m 398.88445,330.65274 h -17.28029 c -1.76479,-11.30573 -11.45278,-19.94587 -23.14456,-19.94587 -12.94183,0 -23.43869,10.58877 -23.43869,23.67767 v 38.09017 h -16.3795 v -37.86957 c 0,-22.24562 17.99723,-40.29616 40.20424,-40.29616 20.88341,0 38.0534,15.95669 40.0388,36.34376 z"
         id="path31" />
    </g>
  </g>
</svg>
